<svg width="94" height="93" viewBox="0 0 94 93" fill="none" xmlns="http://www.w3.org/2000/svg">
<g id="freepik--Cup--inject-16--inject-2">
<g id="freepik--cup--inject-16--inject-2">
<path id="Vector" d="M70.06 77C73.95 77.45 76.79 77.23 79.81 75.92C83.81 74.2 86.15 69.49 88.93 61.86C91.3 55.4 95.13 37.07 92.43 32.48C88.24 25.37 79.43 26.48 72.14 26.65L69.63 26.7L69.73 35.63L72.44 35.58C76.53 35.46 83.37 35.29 84.49 37.58C86.23 42 81.16 65.51 77.49 68.05C73.9 69.59 68.49 68.44 66.87 67.91L63.68 75.68C65.7451 76.3777 67.8876 76.821 70.06 77Z" fill="#232F43"/>
<g id="Group" opacity="0.15">
<path id="Vector_2" d="M70.06 77C73.95 77.45 76.79 77.23 79.81 75.92C83.81 74.2 86.15 69.49 88.93 61.86C91.3 55.4 95.13 37.07 92.43 32.48C88.24 25.37 79.43 26.48 72.14 26.65L69.63 26.7L69.73 35.63L72.44 35.58C76.53 35.46 83.37 35.29 84.49 37.58C86.23 42 81.16 65.51 77.49 68.05C73.9 69.59 68.49 68.44 66.87 67.91L63.68 75.68C65.7451 76.3777 67.8876 76.821 70.06 77Z" fill="white"/>
</g>
<path id="Vector_3" d="M74.48 14.6499C73.6 11.1099 70.04 7.64994 63.76 5.02994C49.26 -1.11006 25.84 -0.900061 11.45 5.50994C5.22 8.27994 1.71999 11.76 0.90999 15.32H0.699998C-1.54 38.7 2.86999 65.7399 11.32 80.6399L11.49 80.9399L11.61 81.1699C13.2918 83.8733 15.6676 86.0765 18.49 87.5499C29.49 93.78 47.27 93.6199 58.17 87.1899C60.9633 85.6657 63.2974 83.4213 64.93 80.6899L65.03 80.4799C65.0992 80.3666 65.1627 80.2498 65.22 80.13C73.39 65.13 77.31 37.9699 74.64 14.6499H74.48Z" fill="#232F43"/>
<g id="Group_2" opacity="0.4">
<path id="Vector_4" d="M63.76 5C78.26 11.15 78.35 21.32 63.97 27.73C49.59 34.14 26.16 34.35 11.66 28.2C-2.84 22.05 -2.93999 11.89 11.45 5.47999C25.84 -0.930007 49.26 -1.11 63.76 5Z" fill="white"/>
</g>
<path id="Vector_5" d="M58.74 9C70.43 13 70.49 19.64 58.88 23.85C47.27 28.06 28.36 28.22 16.67 24.23C4.98001 20.24 4.92001 13.59 16.54 9.38001C28.16 5.17001 47.05 5 58.74 9Z" fill="#232F43"/>
<g id="Group_3" opacity="0.1">
<path id="Vector_6" d="M58.74 9C70.43 13 70.49 19.64 58.88 23.85C47.27 28.06 28.36 28.22 16.67 24.23C4.98001 20.24 4.92001 13.59 16.54 9.38001C28.16 5.17001 47.05 5 58.74 9Z" fill="white"/>
</g>
<path id="Vector_7" d="M58.82 18C60.9123 18.6668 62.894 19.6408 64.7 20.89C62.9178 22.1703 60.9568 23.1811 58.88 23.89C47.26 28.09 28.36 28.26 16.67 24.27C14.5807 23.6034 12.6024 22.6294 10.8 21.38C12.5795 20.0953 14.5412 19.0841 16.62 18.38C28.24 14.17 47.13 14 58.82 18Z" fill="#37474F"/>
</g>
</g>
</svg>
