<svg width="69" height="89" viewBox="0 0 69 89" fill="none" xmlns="http://www.w3.org/2000/svg">
<g id="freepik--Envelope--inject-16--inject-2">
<g id="freepik--Letter--inject-16--inject-2">
<path id="Vector" d="M0.830002 38.28C0.852948 37.8621 0.973433 37.4554 1.18182 37.0925C1.3902 36.7296 1.68068 36.4205 2.03 36.19L63.66 0.610016C64.034 0.422608 64.4466 0.325027 64.865 0.325027C65.2834 0.325027 65.696 0.422608 66.07 0.610016L67.43 1.40001C67.7785 1.62892 68.0686 1.9363 68.277 2.2975C68.4854 2.6587 68.6063 3.06368 68.63 3.48001V50.72C68.6078 51.1381 68.4877 51.545 68.2792 51.9081C68.0708 52.2712 67.7799 52.5801 67.43 52.81L5.8 88.39C5.42596 88.5774 5.01336 88.675 4.595 88.675C4.17664 88.675 3.76404 88.5774 3.39 88.39L2 87.61C1.65177 87.3784 1.36212 87.069 1.15388 86.7063C0.945632 86.3437 0.82449 85.9375 0.800003 85.52L0.830002 38.28Z" fill="#232F43"/>
<path id="Vector_2" opacity="0.4" d="M1.18001 37.09L4.60001 39.09L68.28 2.32001C68.078 1.95246 67.7854 1.64264 67.43 1.42L66.07 0.639999C65.6974 0.447923 65.2842 0.347702 64.865 0.347702C64.4458 0.347702 64.0326 0.447923 63.66 0.639999L2.00001 36.19C1.66004 36.4217 1.37918 36.73 1.18001 37.09Z" fill="white"/>
<path id="Vector_3" opacity="0.1" d="M0.830002 38.28V85.52C0.848775 85.934 0.964403 86.3379 1.1676 86.6992C1.3708 87.0604 1.65591 87.369 2 87.6L3.36 88.39C3.4642 88.4519 3.57486 88.5022 3.69 88.54C3.85237 88.594 4.01995 88.6309 4.19 88.65C4.52099 88.706 4.85902 88.706 5.19 88.65L5.42 88.59L5.56 88.53C5.4703 88.57 5.3732 88.5906 5.275 88.5906C5.1768 88.5906 5.07969 88.57 4.99 88.53C4.86027 88.444 4.75698 88.3237 4.69164 88.1824C4.62631 88.0412 4.60151 87.8846 4.62 87.73V40.46C4.6125 40.2493 4.66858 40.0413 4.78094 39.8629C4.8933 39.6846 5.05674 39.5442 5.25 39.46L4.62 39.1L1.2 37.1C0.978601 37.4556 0.851282 37.8617 0.830002 38.28Z" fill="white"/>
<path id="Vector_4" opacity="0.2" d="M4.60001 39.07L33.14 49.73C34.1262 50.0965 35.2076 50.117 36.207 49.7881C37.2063 49.4593 38.0642 48.8006 38.64 47.92L43.23 40.92L68.51 2.2L44.14 41.2L68.63 50.78C68.6104 51.2094 68.4794 51.6264 68.25 51.99L44.07 41.31L38.75 49.83C38.159 50.7774 37.2455 51.4794 36.1779 51.8065C35.1102 52.1336 33.9603 52.0638 32.94 51.61L29.15 49.94L5.00001 88.49C4.87028 88.404 4.76699 88.2837 4.70165 88.1424C4.63632 88.0012 4.61151 87.8445 4.63 87.69V86.91L29 49.85L4.60001 39.07Z" fill="white"/>
</g>
</g>
</svg>
