<svg width="122" height="209" viewBox="0 0 122 209" fill="none" xmlns="http://www.w3.org/2000/svg">
<g id="freepik--Characters--inject-16--inject-2">
<g id="freepik--Character--inject-16--inject-2">
<path id="Vector" d="M72.66 172.19C72.66 172.19 74.23 182.9 77.36 186.88C80.18 190.46 82.21 195.04 85.56 198.77C86.29 199.59 87.95 201.1 88.56 201.77C88.7027 201.898 88.8149 202.057 88.8886 202.234C88.9623 202.411 88.9956 202.602 88.986 202.794C88.9764 202.985 88.9242 203.172 88.8333 203.341C88.7423 203.51 88.6147 203.657 88.46 203.77C87.03 205.19 80.84 205.63 77.33 203.09C73.82 200.55 70.33 195.67 68.21 193.61L65.44 190.87C65.0981 190.528 64.8504 190.103 64.7208 189.637C64.5911 189.171 64.584 188.68 64.7 188.21C64.77 187.94 64.84 187.62 64.92 187.21C65.36 185.21 62.58 177.05 62.58 177.05L72.66 172.19Z" fill="#FFA8A7"/>
<path id="Vector_2" d="M65.2 193C65.1973 193.658 65.3125 194.312 65.54 194.93C65.89 195.69 67.68 196.83 68.81 197.37C70.4258 198.126 71.7071 199.45 72.41 201.09C73.7233 203.681 75.8726 205.753 78.51 206.97C81.9981 208.387 85.835 208.708 89.51 207.89C94.08 206.98 94.39 204.27 94.39 204.27C94.39 204.27 94.59 201.72 93.44 201.35C92.29 200.98 65.2 193 65.2 193Z" fill="#263238"/>
<path id="Vector_3" d="M64 181.82C64.4028 183.992 64.5071 186.209 64.31 188.41C64.21 189.74 64.19 191.83 65.19 193C66.57 194.85 69.48 195.4 71.37 197.92C73.26 200.44 76.06 205 82.08 206.07C88.1 207.14 92.62 205.15 93.7 203.42C94.78 201.69 93.7 200.1 89.84 198.1C85.72 195.98 80.22 189.52 80.22 189.52C78.5856 187.594 77.2752 185.416 76.34 183.07L74.88 178.41C74.56 177.5 68.08 179.41 67.4 180.75L68.18 184.88L66.51 180.98C65.6049 180.984 64.7249 181.278 64 181.82Z" fill="#455A64"/>
<path id="Vector_4" d="M78.18 204.72C78.2305 203.331 78.6596 201.982 79.4209 200.818C80.1823 199.655 81.247 198.722 82.5 198.12C86.97 195.72 89.75 197.12 91.15 198.12C92.83 199.28 95.23 201.71 93.83 203.53C92.33 205.53 89.83 206.53 85.26 206.62C82.7522 206.815 80.2533 206.144 78.18 204.72Z" fill="#FAFAFA"/>
<path id="Vector_5" d="M71.71 190.82C71.7914 190.816 71.8708 190.793 71.9419 190.753C72.013 190.713 72.0739 190.657 72.12 190.59C72.62 189.87 75.86 187.13 79.05 187.95C79.21 187.58 78.93 187.21 78.27 186.83C74.93 186.59 71.85 189.17 71.27 190.05C71.232 190.103 71.2057 190.164 71.1927 190.229C71.1796 190.293 71.1802 190.359 71.1943 190.423C71.2085 190.487 71.2358 190.548 71.2747 190.6C71.3136 190.653 71.3631 190.697 71.42 190.73C71.5058 190.788 71.6066 190.819 71.71 190.82Z" fill="#FAFAFA"/>
<path id="Vector_6" d="M80.92 190.31C80.8644 190.068 80.7519 189.843 80.5919 189.654C80.4319 189.464 80.229 189.315 80 189.22C78.7379 189.292 77.5029 189.616 76.3677 190.172C75.2325 190.729 74.2201 191.506 73.39 192.46C73.3521 192.513 73.3257 192.574 73.3127 192.639C73.2997 192.703 73.3002 192.769 73.3143 192.833C73.3285 192.897 73.3559 192.958 73.3947 193.01C73.4336 193.063 73.4831 193.107 73.54 193.14C73.5961 193.179 73.6595 193.207 73.7264 193.221C73.7934 193.235 73.8625 193.236 73.9297 193.223C73.9969 193.21 74.0608 193.183 74.1175 193.145C74.1742 193.107 74.2227 193.057 74.26 193C74.75 192.3 77.82 189.7 80.92 190.31Z" fill="#FAFAFA"/>
<path id="Vector_7" d="M77.62 185.78C77.6696 185.656 77.6918 185.524 77.6851 185.391C77.6784 185.258 77.6429 185.128 77.5811 185.01C77.5193 184.892 77.4327 184.789 77.3272 184.708C77.2217 184.627 77.0998 184.569 76.97 184.54C73.31 183.74 69.76 186.69 69.11 187.64C69.072 187.693 69.0457 187.754 69.0327 187.819C69.0197 187.883 69.0202 187.949 69.0343 188.013C69.0485 188.077 69.0759 188.138 69.1147 188.19C69.1536 188.243 69.2031 188.287 69.26 188.32C69.3502 188.384 69.4595 188.416 69.57 188.41C69.6513 188.405 69.7303 188.382 69.8013 188.342C69.8723 188.302 69.9334 188.247 69.98 188.18C70.51 187.4 74.21 184.3 77.62 185.78Z" fill="#FAFAFA"/>
<path id="Vector_8" d="M86 195.36C85.6868 194.766 85.1731 194.301 84.55 194.05C83.2412 194.078 81.9528 194.38 80.7678 194.936C79.5828 195.492 78.5275 196.291 77.67 197.28C77.6319 197.334 77.6054 197.396 77.5923 197.461C77.5791 197.526 77.5796 197.593 77.5937 197.658C77.6078 197.723 77.6352 197.784 77.6742 197.838C77.7131 197.891 77.7628 197.936 77.82 197.97C77.9131 198.027 78.021 198.055 78.13 198.05C78.2113 198.045 78.2903 198.022 78.3613 197.982C78.4323 197.942 78.4934 197.887 78.54 197.82C79.07 197.06 82.65 194.05 86 195.36Z" fill="#FAFAFA"/>
<path id="Vector_9" d="M76 195.64C76.0801 195.636 76.158 195.613 76.2275 195.573C76.297 195.533 76.3561 195.477 76.4 195.41C76.9 194.7 80.07 192.02 83.23 192.75C83.1469 192.492 83.0052 192.257 82.8161 192.062C82.6271 191.868 82.3957 191.72 82.14 191.63C80.879 191.701 79.645 192.024 78.5112 192.58C77.3775 193.137 76.3671 193.915 75.54 194.87C75.5014 194.924 75.4744 194.985 75.4605 195.049C75.4466 195.114 75.4462 195.181 75.4594 195.246C75.4725 195.31 75.4989 195.372 75.5369 195.426C75.5748 195.48 75.6236 195.526 75.68 195.56C75.7773 195.616 75.888 195.643 76 195.64Z" fill="#FAFAFA"/>
<path id="Vector_10" d="M8.89001 96.41C8.15001 103.11 6.61 107.2 9.29 113.08C12.04 119.08 19.67 123.51 28.14 128.91C36 133.91 43.64 139.6 45.59 140.91C47.69 142.32 48.78 143.13 49.22 146.61C49.73 150.69 51.66 157.23 55.97 165.75C60.88 175.48 62.79 180.34 62.79 180.34C62.79 180.34 69.1 178.27 73.91 176.26C73.91 176.26 65.35 136.73 63.44 131.41C61.53 126.09 41.07 109.12 41.07 109.12C41.07 109.12 43.07 100.6 44.56 94.4L8.89001 96.41Z" fill="#37474F"/>
<path id="Vector_11" d="M99.52 162.84C99.52 162.84 102.36 171.61 104.63 175.72C106.87 179.903 109.574 183.821 112.69 187.4C113.4 188.2 115.03 189.68 115.62 190.33C115.764 190.457 115.878 190.615 115.953 190.793C116.028 190.97 116.062 191.162 116.052 191.354C116.042 191.546 115.99 191.734 115.897 191.903C115.805 192.072 115.676 192.218 115.52 192.33C114.11 193.72 108.04 194.16 104.58 191.66C101.12 189.16 97.7 184.37 95.63 182.35L92.91 179.66C92.5741 179.324 92.3305 178.908 92.2026 178.451C92.0747 177.994 92.0669 177.511 92.18 177.05C92.25 176.79 92.32 176.47 92.4 176.11C92.83 174.11 90.1 166.11 90.1 166.11L99.52 162.84Z" fill="#FFA8A7"/>
<path id="Vector_12" d="M36.46 84.59C35.35 90.8 35.01 94.32 37.19 100.59C39.37 106.86 44.47 116.83 53.24 121.74C60.5 125.8 69.93 130.8 72 132C73.81 133.07 75.23 134.48 75.94 139C76.58 143.06 78.7 147.69 83.4 156C85.9655 160.377 88.2566 164.909 90.26 169.57C93.743 167.915 97.3676 166.577 101.09 165.57C101.09 165.57 90.67 126.71 88.76 121.39C86.85 116.07 72.92 108.25 67 104.82C61.08 101.39 57.72 99.25 50.93 94.64L36.46 84.59Z" fill="#37474F"/>
<path id="Vector_13" d="M92.6 181.69C92.6025 182.335 92.7175 182.975 92.94 183.58C93.28 184.33 95.04 185.45 96.15 185.98C97.7353 186.721 98.9919 188.021 99.68 189.63C100.976 192.174 103.089 194.21 105.68 195.41C109.096 196.793 112.852 197.107 116.45 196.31C120.93 195.41 121.25 192.75 121.25 192.75C121.25 192.75 121.43 190.26 120.31 189.88C119.19 189.5 92.6 181.69 92.6 181.69Z" fill="#263238"/>
<path id="Vector_14" d="M91.44 170.71C91.8324 172.843 91.9367 175.019 91.75 177.18C91.65 178.48 91.62 180.54 92.6 181.69C93.96 183.5 96.82 184.04 98.68 186.52C100.54 189 103.28 193.52 109.2 194.52C115.12 195.52 119.54 193.62 120.6 191.92C121.66 190.22 120.6 188.66 116.82 186.7C112.77 184.61 107.36 178.27 107.36 178.27C105.756 176.378 104.472 174.237 103.56 171.93L102.36 167.62C102.04 166.73 95.58 168.39 94.9 169.62L95.7 173.56L93.93 169.86L91.44 170.71Z" fill="#455A64"/>
<path id="Vector_15" d="M105.35 193.19C105.399 191.826 105.82 190.502 106.568 189.36C107.315 188.218 108.36 187.301 109.59 186.71C113.99 184.36 116.72 185.77 118.09 186.71C119.73 187.84 122.09 190.23 120.73 192.02C119.24 193.96 116.83 194.91 112.3 195.02C109.842 195.221 107.39 194.575 105.35 193.19Z" fill="#FAFAFA"/>
<path id="Vector_16" d="M99 179.54C99.0793 179.538 99.157 179.517 99.2266 179.478C99.2961 179.44 99.3556 179.386 99.4 179.32C99.89 178.61 103.07 175.92 106.21 176.73C106.36 176.37 106.09 176 105.45 175.63C104.141 175.632 102.847 175.916 101.657 176.461C100.467 177.006 99.4071 177.8 98.55 178.79C98.5133 178.843 98.4877 178.902 98.4749 178.965C98.462 179.028 98.4622 179.092 98.4753 179.155C98.4884 179.218 98.5142 179.277 98.5511 179.33C98.588 179.382 98.6353 179.427 98.69 179.46C98.7823 179.519 98.8908 179.547 99 179.54Z" fill="#FAFAFA"/>
<path id="Vector_17" d="M108.05 179C107.993 178.763 107.88 178.543 107.722 178.357C107.564 178.171 107.365 178.025 107.14 177.93C105.902 178.004 104.69 178.323 103.576 178.869C102.462 179.415 101.467 180.177 100.65 181.11C100.614 181.164 100.588 181.225 100.576 181.289C100.564 181.353 100.565 181.419 100.579 181.482C100.593 181.546 100.62 181.606 100.658 181.659C100.696 181.712 100.744 181.756 100.8 181.79C100.893 181.847 101.001 181.875 101.11 181.87C101.188 181.867 101.264 181.845 101.332 181.807C101.399 181.769 101.457 181.715 101.5 181.65C102 181 105 178.45 108.05 179Z" fill="#FAFAFA"/>
<path id="Vector_18" d="M104.8 174.6C104.85 174.479 104.872 174.348 104.866 174.217C104.86 174.085 104.825 173.957 104.764 173.841C104.703 173.725 104.617 173.623 104.513 173.544C104.409 173.464 104.288 173.408 104.16 173.38C100.57 172.6 97.09 175.49 96.44 176.38C96.4049 176.434 96.3809 176.495 96.3694 176.559C96.358 176.623 96.3592 176.688 96.3732 176.751C96.3871 176.815 96.4135 176.874 96.4507 176.927C96.4879 176.98 96.5352 177.025 96.59 177.06C96.6838 177.115 96.7912 177.143 96.9 177.14C96.9787 177.135 97.0553 177.112 97.1244 177.074C97.1935 177.036 97.2534 176.984 97.3 176.92C97.83 176.19 101.46 173.14 104.8 174.6Z" fill="#FAFAFA"/>
<path id="Vector_19" d="M113 184C112.688 183.423 112.187 182.97 111.58 182.72C110.294 182.747 109.028 183.042 107.864 183.588C106.7 184.134 105.663 184.918 104.82 185.89C104.783 185.943 104.758 186.002 104.745 186.065C104.732 186.128 104.732 186.192 104.745 186.255C104.758 186.318 104.784 186.377 104.821 186.43C104.858 186.482 104.905 186.527 104.96 186.56C105.052 186.619 105.161 186.647 105.27 186.64C105.349 186.64 105.426 186.62 105.496 186.584C105.565 186.547 105.625 186.495 105.67 186.43C106.23 185.67 109.74 182.72 113 184Z" fill="#FAFAFA"/>
<path id="Vector_20" d="M103.21 184.28C103.289 184.275 103.366 184.253 103.435 184.215C103.504 184.177 103.564 184.124 103.61 184.06C104.09 183.35 107.21 180.72 110.31 181.44C110.229 181.186 110.09 180.955 109.904 180.764C109.719 180.573 109.491 180.428 109.24 180.34C108.003 180.413 106.792 180.731 105.68 181.277C104.567 181.823 103.574 182.586 102.76 183.52C102.723 183.573 102.697 183.634 102.684 183.697C102.671 183.761 102.671 183.826 102.685 183.89C102.698 183.954 102.724 184.014 102.761 184.067C102.798 184.12 102.845 184.166 102.9 184.2C102.994 184.255 103.101 184.283 103.21 184.28Z" fill="#FAFAFA"/>
<path id="Vector_21" d="M45.47 103.57C44.1412 105.525 42.6705 107.38 41.07 109.12L42.32 110.17C43.819 108.214 44.892 105.966 45.47 103.57Z" fill="#37474F"/>
<path id="Vector_22" d="M48.27 43.29C53.83 44.14 57.05 47.07 57.21 51.46C57.37 55.85 50.45 72.67 50.45 72.67C53.85 75.7367 57.35 78.69 60.95 81.53C62.33 82.61 63.74 83.68 65.15 84.73C65.95 85.32 68.52 86.61 68.66 87.64C68.682 87.9886 68.6021 88.3361 68.43 88.64C67.09 91.52 64.01 94.03 60.87 92.78C58.17 91.7 55.22 90.3 52.54 88.95C49.7372 87.6005 47.0248 86.0706 44.42 84.37C42.78 83.26 41.03 82.37 39.84 80.77C37.9 78 48.27 43.29 48.27 43.29Z" fill="#E0E0E0"/>
<path id="Vector_23" d="M20.22 49.05C18.32 51.91 12.59 68.58 8.39001 100.05C13.99 106.14 42.31 107.62 50.89 94.63C50.89 94.63 54.62 66.05 54.56 59.82C54.56 55.51 55.82 45.82 48.27 43.11L36.97 42.35L24 44.13C22.6238 45.6774 21.3606 47.3216 20.22 49.05Z" fill="#F5F5F5"/>
<path id="Vector_24" d="M35.55 49.86C37.49 51.27 41.05 52.32 43.27 51.72C45.49 51.12 46.27 49.01 46.43 46.86L43.85 47.23L42.85 48.8L41.55 47.8L35.55 49.86Z" fill="#232F43"/>
<path id="Vector_25" opacity="0.3" d="M35.55 49.86C37.49 51.27 41.05 52.32 43.27 51.72C45.49 51.12 46.27 49.01 46.43 46.86L43.85 47.23L42.85 48.8L41.55 47.8L35.55 49.86Z" fill="white"/>
<path id="Vector_26" d="M57.7525 21.231C60.5853 15.4664 58.2086 8.49676 52.4439 5.66396C46.6793 2.83115 39.7097 5.20787 36.8769 10.9725C34.0441 16.7372 36.4208 23.7067 42.1854 26.5395C47.9501 29.3723 54.9196 26.9956 57.7525 21.231Z" fill="#263238"/>
<path id="Vector_27" d="M26.85 23.44C26.85 23.44 28.32 32.37 29 33.86C29.4562 34.7903 30.2557 35.5073 31.23 35.86L31.39 29.63L26.85 23.44Z" fill="#263238"/>
<path id="Vector_28" d="M29.81 10.88C29.1565 10.7734 28.4872 10.817 27.8531 11.0076C27.2189 11.1982 26.6365 11.5308 26.15 11.98C24.52 13.49 25.15 18.49 26.85 23.44L30.38 24.02L29.81 10.88Z" fill="#263238"/>
<path id="Vector_29" d="M31.15 24.12C30.38 24.02 30.15 22.79 29.31 21.83C28.9219 21.4388 28.4469 21.1447 27.9237 20.9718C27.4005 20.7988 26.8438 20.7518 26.299 20.8347C25.7542 20.9175 25.2367 21.1278 24.7885 21.4485C24.3403 21.7692 23.9743 22.1911 23.72 22.68C22.12 25.68 24.64 29.86 26.86 30.68C30.69 32.08 31.39 29.62 31.39 29.62L31.02 43.62C33.26 46.36 41.84 47.75 42.87 48.78C42.87 48.78 44.46 45.95 43.68 43.84L43.87 39.58C45.5864 39.9385 47.3367 40.1095 49.09 40.09C51.97 39.79 53.87 37.62 54.89 34.57C56.51 29.67 57.23 25.68 56.51 15.86C55.73 5.09 43.28 4.39 36.36 8.31C29.44 12.23 31.15 24.12 31.15 24.12Z" fill="#FFA8A7"/>
<path id="Vector_30" d="M31.39 25.27C30.72 25.13 30.16 22.67 29.31 21.83C28.14 20.65 29.81 10.83 29.81 10.83C29.5403 9.94749 29.5318 9.00577 29.7855 8.11853C30.0393 7.23128 30.5444 6.43646 31.24 5.83001C32.4746 4.54216 34.0268 3.60247 35.7403 3.10563C37.4538 2.6088 39.268 2.57236 41 3.00001C44.0935 3.70047 47.2209 4.24118 50.37 4.62001C53.6553 4.99089 56.9819 4.59732 60.09 3.47001C60.3449 5.21371 60.1344 6.99381 59.48 8.63002C58.7803 10.169 57.611 11.4468 56.14 12.28C54.48 13.28 52.79 13.83 49.32 13.97C45.0472 14.1981 40.7655 13.7355 36.64 12.6C35.33 12.35 34.99 13.6 34.11 17.08C33.35 20.13 34.46 25.88 31.39 25.27Z" fill="#263238"/>
<path id="Vector_31" d="M29.78 11.67L25.59 9.16002C25.7411 8.87653 25.9481 8.62657 26.1984 8.4252C26.4487 8.22383 26.7372 8.07522 27.0464 7.98832C27.3557 7.90143 27.6794 7.87805 27.998 7.91958C28.3165 7.96112 28.6233 8.06671 28.9 8.23001C29.4611 8.58003 29.8657 9.1329 30.0296 9.7736C30.1935 10.4143 30.1041 11.0935 29.78 11.67Z" fill="#263238"/>
<path id="Vector_32" d="M43.87 39.6C43.87 39.6 37.55 38.01 35.38 36.72C34.1018 35.9762 33.0773 34.8646 32.44 33.53C32.7163 34.8497 33.2534 36.1008 34.02 37.21C35.56 39.37 43.79 41.29 43.79 41.29L43.87 39.6Z" fill="#F28F8F"/>
<path id="Vector_33" d="M59.24 20.82H58.71C56.9113 20.6632 55.099 20.812 53.35 21.26C51.61 21.87 50.97 22.48 50.02 22.53C49.07 22.58 48.42 22.03 46.64 21.61C44.7451 21.3521 42.8212 21.396 40.94 21.74L40.36 21.83C40.1534 21.9038 39.9745 22.0393 39.8475 22.2182C39.7205 22.3971 39.6516 22.6106 39.65 22.83C39.6883 23.2248 39.8532 23.5966 40.12 23.89C40.2012 24.0214 40.2556 24.1675 40.28 24.32C40.3537 25.3319 40.5143 26.3356 40.76 27.32C40.9064 27.7089 41.1272 28.0655 41.41 28.37C41.5171 28.4837 41.6342 28.5874 41.76 28.68L41.97 28.81C42.1636 28.9274 42.3721 29.0183 42.59 29.08H42.69H42.86H43.03C43.2146 29.1159 43.402 29.1359 43.59 29.14H44.14C44.9796 29.1531 45.8061 28.9304 46.5255 28.4973C47.245 28.0643 47.8286 27.4381 48.21 26.69C48.87 25.52 48.84 23.9 49.92 23.85H50.12C50.9 24 50.7 25.49 51.12 26.53C51.2741 26.9458 51.5047 27.3291 51.8 27.66C51.8516 27.7215 51.9085 27.7784 51.97 27.83L52.06 27.91C52.0887 27.942 52.1225 27.969 52.16 27.99L52.24 28.06L52.34 28.12L52.42 28.17H52.47C52.7557 28.3213 53.0624 28.4292 53.38 28.49H53.46C53.8385 28.5373 54.2215 28.5373 54.6 28.49C55.3338 28.484 56.0504 28.2667 56.664 27.8641C57.2776 27.4615 57.7623 26.8908 58.06 26.22C58.4358 25.2247 58.7334 24.2016 58.95 23.16C58.993 23.007 59.0718 22.8665 59.18 22.75C59.4723 22.4304 59.6696 22.0356 59.75 21.61C59.82 21.27 59.53 20.85 59.24 20.82ZM47.68 25.69C47.5096 26.3019 47.19 26.862 46.75 27.32C46.0377 27.9778 45.0994 28.336 44.13 28.32C43.6799 28.3856 43.2203 28.3272 42.8009 28.151C42.3815 27.9748 42.0182 27.6875 41.75 27.32L41.68 27.21L41.62 27.1C41.5994 27.0688 41.5826 27.0352 41.57 27C41.57 27 41.57 26.93 41.52 26.9V26.83V26.76C41.52 26.76 41.52 26.68 41.52 26.65C41.52 26.53 41.45 26.42 41.42 26.32C41.42 26.25 41.42 26.19 41.37 26.12C41.32 26.05 41.37 25.9 41.37 25.8V25.68C41.24 24.89 41.14 23.33 41.57 22.95C42.5421 22.3436 43.6929 22.0894 44.83 22.23H45.01C45.28 22.23 45.54 22.23 45.8 22.32L46.1 22.38C46.3571 22.4355 46.6108 22.5056 46.86 22.59L47.09 22.68L47.34 22.79H47.39L47.48 22.84C47.6748 22.9338 47.8457 23.0706 47.98 23.24C48.1701 24.0666 48.0639 24.9337 47.68 25.69ZM57.89 24.82C57.7841 25.3653 57.5658 25.8825 57.249 26.3387C56.9322 26.795 56.5239 27.1803 56.05 27.47C55.6408 27.6815 55.1903 27.8009 54.73 27.82C54.2514 27.9074 53.7576 27.8526 53.3098 27.6624C52.8619 27.4723 52.4796 27.1551 52.21 26.75V26.68L52.16 26.6L52.1 26.47L52.04 26.33C52.0413 26.3067 52.0413 26.2833 52.04 26.26C52.04 26.26 52.04 26.26 52.04 26.2V26.15C51.9838 25.957 51.9437 25.7596 51.92 25.56C51.7319 24.7498 51.8126 23.9003 52.15 23.14C52.9719 22.4079 53.9975 21.9439 55.09 21.81C55.3543 21.76 55.6215 21.7267 55.89 21.71H56.6H56.82H57.21H57.31H57.38H57.47H57.58L57.77 21.78C57.9221 21.8349 58.0616 21.9199 58.18 22.03C58.44 22.42 58.12 24 57.89 24.82Z" fill="#37474F"/>
<path id="Vector_34" d="M40.37 21.88L28 21C28.7322 21.2663 29.3596 21.7606 29.79 22.41L40.13 23.41L40.37 21.88Z" fill="#37474F"/>
<path id="Vector_35" d="M45.48 24.66C45.4472 24.9548 45.2999 25.2248 45.0698 25.4119C44.8397 25.5989 44.5452 25.6881 44.25 25.66C44.0998 25.6427 43.9546 25.5957 43.8228 25.5218C43.6909 25.4479 43.5751 25.3484 43.4821 25.2293C43.389 25.1102 43.3206 24.9738 43.2807 24.828C43.2409 24.6822 43.2304 24.5299 43.25 24.38C43.2664 24.2349 43.3113 24.0944 43.382 23.9666C43.4527 23.8389 43.5478 23.7263 43.662 23.6353C43.7763 23.5443 43.9073 23.4766 44.0476 23.4363C44.188 23.3959 44.3349 23.3836 44.48 23.4C44.6251 23.4164 44.7656 23.4613 44.8933 23.532C45.0211 23.6027 45.1337 23.6978 45.2247 23.812C45.3157 23.9263 45.3834 24.0573 45.4237 24.1976C45.4641 24.338 45.4764 24.4849 45.46 24.63L45.48 24.66Z" fill="#263238"/>
<path id="Vector_36" d="M44.07 32L47.79 33.88C47.6773 34.1318 47.515 34.3582 47.3127 34.5458C47.1104 34.7333 46.8723 34.8781 46.6128 34.9715C46.3532 35.0649 46.0775 35.1049 45.8021 35.0892C45.5267 35.0734 45.2573 35.0023 45.01 34.88C44.5124 34.6136 44.1368 34.1654 43.9617 33.6288C43.7865 33.0922 43.8253 32.5087 44.07 32Z" fill="#F28F8F"/>
<path id="Vector_37" d="M55.71 20L52.91 19.22C53.0134 18.8487 53.2601 18.5337 53.5958 18.3443C53.9315 18.1549 54.3287 18.1066 54.7 18.21C55.0713 18.3134 55.3863 18.5601 55.5757 18.8958C55.7651 19.2315 55.8134 19.6287 55.71 20Z" fill="#263238"/>
<path id="Vector_38" d="M45 19.59L42.21 20.44C42.1181 20.0764 42.1697 19.6914 42.354 19.3648C42.5383 19.0381 42.8413 18.795 43.2 18.6857C43.5588 18.5764 43.9458 18.6093 44.2809 18.7777C44.6161 18.9461 44.8735 19.2369 45 19.59Z" fill="#263238"/>
<path id="Vector_39" d="M55.13 24.45C55.0996 24.6674 55.0059 24.8711 54.8606 25.0357C54.7154 25.2003 54.5249 25.3186 54.313 25.3759C54.1011 25.4332 53.877 25.4269 53.6686 25.3578C53.4602 25.2888 53.2767 25.16 53.1409 24.9875C53.0051 24.8151 52.9229 24.6065 52.9047 24.3877C52.8865 24.1689 52.9329 23.9496 53.0383 23.757C53.1437 23.5644 53.3034 23.4071 53.4975 23.3045C53.6916 23.2019 53.9115 23.1586 54.13 23.18C54.2792 23.1973 54.4235 23.244 54.5546 23.3173C54.6857 23.3906 54.8011 23.4891 54.894 23.6071C54.9869 23.7251 55.0556 23.8603 55.0961 24.005C55.1366 24.1496 55.1481 24.3009 55.13 24.45Z" fill="#263238"/>
<path id="Vector_40" d="M49.57 24L49.31 30.87L53.58 29.72L50 23.89C49.8489 23.8831 49.6992 23.9214 49.57 24Z" fill="#F28F8F"/>
<path id="Vector_41" d="M27.67 113.9V114.72C27.6686 115.125 27.7742 115.523 27.9761 115.875C28.1781 116.226 28.4692 116.517 28.82 116.72L50.74 129.34C51.0949 129.537 51.4941 129.64 51.9 129.64C52.2996 129.64 52.6924 129.537 53.04 129.34L93.27 106.11C93.6208 105.907 93.912 105.616 94.1139 105.265C94.3158 104.913 94.4215 104.515 94.42 104.11V103.55L51.9 128.1L27.67 113.9Z" fill="#EBEBEB"/>
<path id="Vector_42" d="M94.42 103.55L70.57 89.78C70.3611 89.6617 70.1251 89.5995 69.885 89.5995C69.6449 89.5995 69.4089 89.6617 69.2 89.78L27.82 113.68C27.7743 113.706 27.7364 113.744 27.71 113.79C27.6836 113.835 27.6697 113.887 27.6697 113.94C27.6697 113.993 27.6836 114.045 27.71 114.09C27.7364 114.136 27.7743 114.174 27.82 114.2L51.9 128.11L94.42 103.55Z" fill="#FAFAFA"/>
<path id="Vector_43" d="M60.87 92.76C62.72 93.46 63.01 94.28 64.51 95.13C66.1386 96.0762 67.9865 96.5795 69.87 96.59C71.0736 97.016 72.2297 97.5656 73.32 98.23C75.32 99.58 76.09 99.87 78.53 99.11C81.19 98.27 79.31 95.63 78.53 94.33C77.3088 92.3541 75.9417 90.4722 74.44 88.7C73.59 87.92 69.15 87.23 65.32 84.89C62.36 86 61.08 88.86 60.87 92.76Z" fill="#FFA8A7"/>
<path id="Vector_44" d="M51.68 126.08L38.81 118.66L76.43 96.94L89.36 104.32L51.68 126.08Z" fill="#E0E0E0"/>
<path id="Vector_45" d="M45.35 105.44L45.59 105.58L51.9 109.22L63.11 102.74L63.34 102.61L56.8 98.83L45.35 105.44Z" fill="#E0E0E0"/>
<path id="Vector_46" d="M45.59 105.58L51.9 109.22L63.11 102.74L56.8 99.1L45.59 105.58Z" fill="#E6E6E6"/>
<path id="Vector_47" d="M51.9 128.1V129.63C52.2995 129.63 52.6923 129.527 53.04 129.33L93.27 106.1C93.6208 105.897 93.9119 105.606 94.1139 105.255C94.3158 104.903 94.4214 104.505 94.42 104.1V103.54L51.9 128.1Z" fill="#EBEBEB"/>
<g id="Group" style="mix-blend-mode:multiply" opacity="0.5">
<path id="Vector_48" d="M51.9 128.1V129.63C52.2995 129.63 52.6923 129.527 53.04 129.33L93.27 106.1C93.6208 105.897 93.9119 105.606 94.1139 105.255C94.3158 104.903 94.4214 104.505 94.42 104.1V103.54L51.9 128.1Z" fill="#E0E0E0"/>
</g>
<path id="Vector_49" d="M52.54 128.44C52.9198 128.59 53.3286 128.651 53.7357 128.62C54.1427 128.589 54.5374 128.466 54.89 128.26L94.94 105.14C95.2876 104.94 95.5869 104.667 95.8168 104.338C96.0467 104.01 96.2014 103.635 96.27 103.24L100.65 77.09C100.66 76.9402 100.66 76.7899 100.65 76.64C100.65 76.2792 100.578 75.9219 100.439 75.5889C100.3 75.2559 100.097 74.9538 99.84 74.7L58.22 98.7C57.9585 98.8453 57.7329 99.0474 57.5598 99.2914C57.3867 99.5354 57.2706 99.8151 57.22 100.11L52.54 128.44Z" fill="#EBEBEB"/>
<path id="Vector_50" d="M51.9 128.11L52.17 128.26C52.2893 128.328 52.4129 128.388 52.54 128.44L57.28 100.15C57.3306 99.8552 57.4467 99.5754 57.6198 99.3314C57.7929 99.0874 58.0185 98.8853 58.28 98.74L99.9 74.74C99.7343 74.5783 99.5497 74.4372 99.35 74.32L57.64 98.4C57.3785 98.5453 57.1529 98.7474 56.9798 98.9914C56.8067 99.2354 56.6906 99.5152 56.64 99.81L51.9 128.11Z" fill="#FAFAFA"/>
<path id="Vector_51" d="M75.1 104.31C75.717 102.128 77.149 100.266 79.1 99.11C81.03 98 82.36 98.51 82.1 100.26C81.4845 102.44 80.0517 104.299 78.1 105.45C76.14 106.57 74.81 106.06 75.1 104.31Z" fill="#232F43"/>
<path id="Vector_52" d="M31.4 104.22C26.93 101.95 11.31 94.22 6.26998 91.22C2.09998 88.74 0.400005 86.52 0.890006 83.41C1.34001 80.52 7.88999 58.99 10.5 53.48C12.82 48.64 18.23 45.75 23.5 44.53C27.17 48.8 24.5 61.47 20.93 66.1C18.7669 71.1921 16.8677 76.3923 15.24 81.68C15.24 81.68 22.55 87.33 29.17 91.39C32.76 93.59 36.02 96.23 38.95 97.76C41.52 99.09 45.39 101.6 46.07 102.52C46.75 103.44 50.15 108.95 50.94 110.24C53.08 113.76 51.21 114.5 48.44 114.83C45.9 115.13 44.15 113.75 42.44 112.05C41.6552 111.223 40.9269 110.345 40.26 109.42C38.2796 109.27 36.3938 108.512 34.86 107.25C33.59 106.14 31.4 104.22 31.4 104.22Z" fill="#FFA8A7"/>
<path id="Vector_53" d="M3.31001 73.2C3.31001 73.2 6.57002 62.2 8.16002 57.87C10.37 51.87 11.39 50.18 14.81 46.87C17.81 43.92 24.03 44.14 24.03 44.14C26.57 46.3 27.03 49.95 26.03 56.28C25.4185 60.0905 23.948 63.7119 21.73 66.87L15.93 81.34L33.46 94.21C31.9884 95.095 30.7171 96.2766 29.7272 97.6798C28.7372 99.083 28.0502 100.677 27.71 102.36C27.71 102.36 12.24 94.97 7.3 92.36C2.36 89.75 -0.0800008 88.03 0.579999 83.79C1.26556 80.2059 2.17739 76.6689 3.31001 73.2Z" fill="#E0E0E0"/>
<path id="Vector_54" d="M31.15 38.94C29.84 39.28 28.75 41.7 27.95 42.73C27.15 43.76 29.08 48.24 32.95 50.38C36.82 52.52 39.2 52.53 39.2 52.53C39.2 52.53 39.67 49.75 40.37 49.05C40.696 48.7264 41.1235 48.5249 41.5806 48.4794C42.0377 48.4339 42.4965 48.5471 42.88 48.8C42.88 48.8 42.88 46.93 40.38 46.59C37.88 46.25 32.78 44.03 31.11 40.86L31.15 38.94Z" fill="#E0E0E0"/>
<path id="Vector_55" d="M42.87 48.8C42.8094 48.0745 42.9441 47.3459 43.26 46.69C43.5953 45.7862 43.7384 44.8223 43.68 43.86L43.84 40.19C44.3317 40.2836 44.7863 40.5161 45.15 40.86C45.8435 41.9173 46.4044 43.0558 46.82 44.25C47.13 45.43 47.18 49.45 46.23 50.81C46.23 50.81 45.69 48.49 44.94 47.99C43.85 47.28 42.87 48.8 42.87 48.8Z" fill="#E0E0E0"/>
<path id="Vector_56" d="M41.74 53.66C40.81 59.76 38.57 81.2 38.65 83.12C38.73 85.04 41.5 92.78 43.1 91.55C43.97 90.88 47.41 82.86 47.27 80.82C47.13 78.78 44.73 52.94 44.73 52.94C44.73 52.94 43.15 51 41.74 53.66Z" fill="#232F43"/>
<path id="Vector_57" opacity="0.15" d="M44.73 52.94C44.73 52.94 43.15 51 41.73 53.66C41.6 54.51 41.44 55.66 41.27 57.02C41.5936 55.9593 42.0649 54.9494 42.67 54.02C43.2699 53.5144 43.9729 53.1458 44.73 52.94Z" fill="white"/>
<path id="Vector_58" d="M42.87 48.12C41.2 48.44 40.39 49.05 40.44 50.22C40.6003 51.4521 41.0454 52.6298 41.74 53.66C42.1675 53.3474 42.6528 53.1227 43.1678 52.9991C43.6828 52.8755 44.2172 52.8554 44.74 52.94C45.2223 52.0124 45.4824 50.9854 45.5 49.94C45.53 48.25 44.84 47.75 42.87 48.12Z" fill="#232F43"/>
</g>
</g>
</svg>
