<svg width="113" height="73" viewBox="0 0 113 73" fill="none" xmlns="http://www.w3.org/2000/svg">
<g id="freepik--Chat--inject-16--inject-2">
<g id="freepik--chat--inject-16--inject-2">
<path id="Vector" d="M97.4707 62.29L91.7207 59C91.6078 58.9553 91.5128 58.8744 91.4507 58.77L90.3907 56.92L93.8107 54.92L93.7007 55.22L97.4707 62.29Z" fill="#263238"/>
<path id="Vector_2" d="M93.2907 55.19L97.2907 62.08C97.3469 62.1784 97.4303 62.2586 97.5309 62.3109C97.6315 62.3632 97.7451 62.3854 97.8579 62.3748C97.9708 62.3643 98.0783 62.3214 98.1674 62.2514C98.2566 62.1814 98.3237 62.0872 98.3607 61.98L102.571 49.83L93.2907 55.19Z" fill="#37474F"/>
<path id="Vector_3" d="M112.061 18.4C112.01 17.4358 111.731 16.4974 111.248 15.6614C110.765 14.8254 110.091 14.1156 109.281 13.59L107.021 12.28C106.158 11.8409 105.204 11.6121 104.236 11.6121C103.268 11.6121 102.313 11.8409 101.451 12.28L56.4507 38.28C55.6411 38.8084 54.9674 39.5202 54.4844 40.3576C54.0014 41.1951 53.7226 42.1346 53.6707 43.1V65.91C53.7218 66.8756 54.0003 67.8154 54.4834 68.653C54.9665 69.4906 55.6405 70.2022 56.4507 70.73L58.7107 72.04C59.575 72.4737 60.5287 72.6995 61.4957 72.6995C62.4627 72.6995 63.4164 72.4737 64.2807 72.04L109.581 45.87C112.081 44.44 112.101 43.01 112.101 41.24L112.061 18.4Z" fill="#37474F"/>
<path id="Vector_4" d="M53.6307 65.89C53.6818 66.8556 53.9603 67.7954 54.4434 68.633C54.9264 69.4706 55.6005 70.1822 56.4107 70.71L58.6707 72.02C59.4548 72.4155 60.3138 72.6405 61.1911 72.6801C62.0684 72.7197 62.9441 72.5732 63.7607 72.25C62.4507 72.75 61.4607 72 61.4607 70.41V47.6C61.4933 46.6326 61.772 45.6896 62.2707 44.86L54.4407 40.34C53.9421 41.1696 53.6633 42.1126 53.6307 43.08V65.89Z" fill="#263238"/>
<path id="Vector_5" d="M111.971 17.61C111.651 16.43 110.571 16.06 109.291 16.8L64.2407 42.8C63.3999 43.3018 62.7092 44.0202 62.2407 44.88L54.4107 40.36C54.8856 39.5075 55.5751 38.794 56.4107 38.29L101.411 12.29C102.275 11.8563 103.229 11.6305 104.196 11.6305C105.163 11.6305 106.116 11.8563 106.981 12.29L109.251 13.6C109.953 14.0481 110.557 14.6348 111.024 15.3243C111.492 16.0139 111.814 16.7917 111.971 17.61Z" fill="#455A64"/>
<path id="Vector_6" d="M68.9307 49.25L101.111 30.58C102.041 30.05 102.791 30.29 102.791 31.13C102.723 31.6482 102.536 32.1437 102.245 32.5775C101.953 33.0113 101.565 33.3715 101.111 33.63L68.9307 52.29C68.0007 52.83 67.2507 52.59 67.2507 51.75C67.3184 51.2318 67.5053 50.7363 67.7968 50.3025C68.0883 49.8687 68.4764 49.5085 68.9307 49.25Z" fill="white"/>
<path id="Vector_7" d="M68.9307 56.89L101.111 38.23C102.041 37.69 102.791 37.94 102.791 38.78C102.724 39.2972 102.537 39.7916 102.245 40.2238C101.954 40.6561 101.565 41.0143 101.111 41.27L68.9307 59.93C68.0007 60.47 67.2507 60.23 67.2507 59.39C67.3184 58.8718 67.5053 58.3763 67.7968 57.9425C68.0883 57.5087 68.4764 57.1485 68.9307 56.89Z" fill="white"/>
<path id="Vector_8" d="M23.8407 70.71L18.0807 67.38C17.9696 67.3323 17.8755 67.2521 17.8107 67.15L16.7507 65.3L20.1707 63.3L20.0707 63.6L23.8407 70.71Z" fill="#232F43"/>
<path id="Vector_9" opacity="0.2" d="M23.8407 70.71L18.0807 67.38C17.9696 67.3323 17.8755 67.2521 17.8107 67.15L16.7507 65.3L20.1707 63.3L20.0707 63.6L23.8407 70.71Z" fill="white"/>
<path id="Vector_10" d="M19.6507 63.61L23.6507 70.5C23.7086 70.5978 23.793 70.6771 23.8942 70.7288C23.9954 70.7804 24.1092 70.8023 24.2224 70.7918C24.3355 70.7813 24.4433 70.739 24.5333 70.6696C24.6233 70.6002 24.6918 70.5067 24.7307 70.4L28.9307 58.25L19.6507 63.61Z" fill="#232F43"/>
<path id="Vector_11" d="M66.8707 6.89001C66.8164 5.92518 66.5367 4.98653 66.0539 4.14944C65.5711 3.31234 64.8987 2.60013 64.0907 2.07001L61.8207 0.76001C60.9584 0.32567 60.0063 0.0994263 59.0407 0.0994263C58.0752 0.0994263 57.1231 0.32567 56.2607 0.76001L2.7807 31.65C1.97108 32.1784 1.29744 32.8902 0.814423 33.7276C0.331405 34.5651 0.0526208 35.5046 0.000701904 36.47V62.72C0.0526208 63.6854 0.331405 64.6249 0.814423 65.4624C1.29744 66.2999 1.97108 67.0116 2.7807 67.54L5.04071 68.84C5.90341 69.2791 6.85771 69.508 7.82571 69.508C8.79372 69.508 9.74802 69.2791 10.6107 68.84L64.3507 37.77C66.8407 36.34 66.8707 34.91 66.8707 33.14V6.89001Z" fill="#232F43"/>
<path id="Vector_12" opacity="0.2" d="M0.000701904 62.72C0.0526208 63.6854 0.331405 64.6249 0.814423 65.4624C1.29744 66.2998 1.97108 67.0116 2.7807 67.54L5.04071 68.84C5.8241 69.2371 6.68269 69.4638 7.56 69.5051C8.43731 69.5465 9.31343 69.4016 10.1307 69.08C8.82071 69.57 7.83069 68.82 7.83069 67.24V41C7.86325 40.0326 8.14207 39.0896 8.64072 38.26L0.810699 33.74C0.312048 34.5696 0.0332607 35.5126 0.000701904 36.48V62.72Z" fill="white"/>
<path id="Vector_13" opacity="0.4" d="M67.2214 5.99933C66.8914 4.81933 65.8114 4.43933 64.5314 5.17933L11.0514 36.0693C10.213 36.5742 9.52304 37.2918 9.05142 38.1493L1.22141 33.6293C1.69928 32.7791 2.38807 32.0662 3.22141 31.5593L56.6614 0.659332C57.5257 0.225652 58.4794 -0.000183105 59.4464 -0.000183105C60.4134 -0.000183105 61.3671 0.225652 62.2314 0.659332L64.5014 1.97933C65.2034 2.43027 65.8065 3.01911 66.274 3.71014C66.7416 4.40117 67.0639 5.17998 67.2214 5.99933Z" fill="white"/>
<path id="Vector_14" d="M15.3007 48.36L44.2207 31.61C45.1507 31.07 45.9007 31.32 45.9007 32.16C45.8338 32.6772 45.6471 33.1716 45.3554 33.6038C45.0637 34.0361 44.6752 34.3944 44.2207 34.65L15.3007 51.4C14.3707 51.94 13.6207 51.69 13.6207 50.85C13.6891 50.3333 13.8764 49.8395 14.1679 49.4075C14.4594 48.9754 14.8472 48.6169 15.3007 48.36Z" fill="white"/>
<path id="Vector_15" d="M15.3007 56L55.9107 32.43C56.8407 31.9 57.6007 32.14 57.6007 32.98C57.5304 33.4987 57.3414 33.9941 57.0482 34.4278C56.7551 34.8614 56.3658 35.2215 55.9107 35.48L15.3007 59C14.3707 59.54 13.6207 59.29 13.6207 58.45C13.6949 57.9404 13.8849 57.4546 14.1762 57.0299C14.4674 56.6052 14.8521 56.2529 15.3007 56Z" fill="white"/>
<path id="Vector_16" d="M15.3007 40.34L55.9107 16.77C56.8407 16.23 57.6007 16.48 57.6007 17.32C57.5304 17.8387 57.3414 18.3341 57.0482 18.7678C56.7551 19.2014 56.3658 19.5615 55.9107 19.82L15.3007 43.38C14.3707 43.92 13.6207 43.67 13.6207 42.83C13.6891 42.3133 13.8764 41.8195 14.1679 41.3875C14.4594 40.9554 14.8472 40.5969 15.3007 40.34Z" fill="white"/>
</g>
</g>
</svg>
